<svg width="512" height="512" viewBox="0 0 512 512" fill="none" xmlns="http://www.w3.org/2000/svg">
<path d="M0 16C0 7.16344 7.16344 0 16 0H496C504.837 0 512 7.16344 512 16V496C512 504.837 504.837 512 496 512H16C7.16344 512 0 504.837 0 496V16Z" fill="#141414"/>
<path d="M122.629 384V167.084L118.359 132.497H316.06C335.133 132.497 350.363 134.632 361.749 138.902C373.421 142.887 382.103 148.438 387.796 155.555C393.774 162.387 397.617 170.5 399.325 179.894C401.318 189.003 402.314 198.682 402.314 208.93V242.663C402.314 256.327 400.037 268.995 395.482 280.666C391.212 292.053 383.099 301.304 371.143 308.421C359.472 315.253 342.534 318.669 320.33 318.669H290.867C272.933 318.669 256.138 318.242 240.481 317.388C225.109 316.534 213.58 315.822 205.894 315.253V384H122.629ZM205.894 260.597H294.283C303.677 260.597 310.225 258.747 313.925 255.046C317.626 251.345 319.476 245.367 319.476 237.112V215.335C319.476 207.08 317.768 201.102 314.352 197.401C310.936 193.416 304.389 191.423 294.71 191.423H205.894V260.597Z" fill="white"/>
</svg>
